<svg width="1184" height="300" xmlns="http://www.w3.org/2000/svg" xmlns:xlink="http://www.w3.org/1999/xlink" overflow="hidden"><defs><linearGradient x1="156.5" y1="152.5" x2="156.5" y2="180.5" gradientUnits="userSpaceOnUse" spreadMethod="reflect" id="fill0"><stop offset="0" stop-color="#B1CBE9"/><stop offset="0.5" stop-color="#A3C1E5"/><stop offset="1" stop-color="#92B9E4"/></linearGradient><linearGradient x1="159" y1="298.5" x2="159" y2="327.5" gradientUnits="userSpaceOnUse" spreadMethod="reflect" id="fill1"><stop offset="0" stop-color="#D2D2D2"/><stop offset="0.5" stop-color="#C8C8C8"/><stop offset="1" stop-color="#C0C0C0"/></linearGradient><linearGradient x1="538" y1="132.5" x2="538" y2="161.5" gradientUnits="userSpaceOnUse" spreadMethod="reflect" id="fill2"><stop offset="0" stop-color="#B1CBE9"/><stop offset="0.5" stop-color="#A3C1E5"/><stop offset="1" stop-color="#92B9E4"/></linearGradient><linearGradient x1="157.5" y1="247.5" x2="157.5" y2="284.5" gradientUnits="userSpaceOnUse" spreadMethod="reflect" id="fill3"><stop offset="0" stop-color="#B1CBE9"/><stop offset="0.5" stop-color="#A3C1E5"/><stop offset="1" stop-color="#92B9E4"/></linearGradient><linearGradient x1="538" y1="210.5" x2="538" y2="239.5" gradientUnits="userSpaceOnUse" spreadMethod="reflect" id="fill4"><stop offset="0" stop-color="#FFDD9C"/><stop offset="0.5" stop-color="#FFD78E"/><stop offset="1" stop-color="#FFD479"/></linearGradient><linearGradient x1="538" y1="244.5" x2="538" y2="286.5" gradientUnits="userSpaceOnUse" spreadMethod="reflect" id="fill5"><stop offset="0" stop-color="#FFDD9C"/><stop offset="0.5" stop-color="#FFD78E"/><stop offset="1" stop-color="#FFD479"/></linearGradient><linearGradient x1="538" y1="291.5" x2="538" y2="333.5" gradientUnits="userSpaceOnUse" spreadMethod="reflect" id="fill6"><stop offset="0" stop-color="#FFDD9C"/><stop offset="0.5" stop-color="#FFD78E"/><stop offset="1" stop-color="#FFD479"/></linearGradient><linearGradient x1="1078" y1="207.5" x2="1078" y2="255.5" gradientUnits="userSpaceOnUse" spreadMethod="reflect" id="fill7"><stop offset="0" stop-color="#D2D2D2"/><stop offset="0.5" stop-color="#C8C8C8"/><stop offset="1" stop-color="#C0C0C0"/></linearGradient><linearGradient x1="892" y1="194.5" x2="892" y2="222.5" gradientUnits="userSpaceOnUse" spreadMethod="reflect" id="fill8"><stop offset="0" stop-color="#FFDD9C"/><stop offset="0.5" stop-color="#FFD78E"/><stop offset="1" stop-color="#FFD479"/></linearGradient><linearGradient x1="892" y1="244.5" x2="892" y2="287.5" gradientUnits="userSpaceOnUse" spreadMethod="reflect" id="fill9"><stop offset="0" stop-color="#FFDD9C"/><stop offset="0.5" stop-color="#FFD78E"/><stop offset="1" stop-color="#FFD479"/></linearGradient><linearGradient x1="156.5" y1="194.5" x2="156.5" y2="222.5" gradientUnits="userSpaceOnUse" spreadMethod="reflect" id="fill10"><stop offset="0" stop-color="#B1CBE9"/><stop offset="0.5" stop-color="#A3C1E5"/><stop offset="1" stop-color="#92B9E4"/></linearGradient><linearGradient x1="893.5" y1="132.5" x2="893.5" y2="160.5" gradientUnits="userSpaceOnUse" spreadMethod="reflect" id="fill11"><stop offset="0" stop-color="#FFDD9C"/><stop offset="0.5" stop-color="#FFD78E"/><stop offset="1" stop-color="#FFD479"/></linearGradient><linearGradient x1="894" y1="298.5" x2="894" y2="327.5" gradientUnits="userSpaceOnUse" spreadMethod="reflect" id="fill12"><stop offset="0" stop-color="#B1CBE9"/><stop offset="0.5" stop-color="#A3C1E5"/><stop offset="1" stop-color="#92B9E4"/></linearGradient></defs><g transform="translate(-47 -61)"><rect x="48.5001" y="103.5" width="572" height="257" stroke="#4472C4" stroke-linejoin="round" stroke-miterlimit="10" fill="none"/><rect x="90.5001" y="152.5" width="132" height="28" stroke="#5B9BD5" stroke-width="0.666667" stroke-miterlimit="8" fill="url(#fill0)"/><text font-family="DengXian,DengXian_MSFontService,sans-serif" font-weight="400" font-size="19" transform="translate(118.457 172)">transition</text><text font-family="DengXian,DengXian_MSFontService,sans-serif" font-weight="400" font-size="19" transform="translate(197.326 84)">BaseGroupChatManager</text><rect x="91.5001" y="298.5" width="135" height="29" stroke="#A5A5A5" stroke-width="0.666667" stroke-miterlimit="8" fill="url(#fill1)"/><text font-family="DengXian,DengXian_MSFontService,sans-serif" font-weight="400" font-size="19" transform="translate(102.369 318)">output_queue</text><rect x="467.5" y="132.5" width="141" height="29" stroke="#5B9BD5" stroke-width="0.666667" stroke-miterlimit="8" fill="url(#fill2)"/><text font-family="DengXian,DengXian_MSFontService,sans-serif" font-weight="400" font-size="19" transform="translate(508.645 152)">publish</text><rect x="91.5001" y="247.5" width="132" height="37" stroke="#5B9BD5" stroke-width="0.666667" stroke-miterlimit="8" fill="url(#fill3)"/><text font-family="DengXian,DengXian_MSFontService,sans-serif" font-weight="400" font-size="19" transform="translate(131.736 260)">apply_</text><text font-family="DengXian,DengXian_MSFontService,sans-serif" font-weight="400" font-size="19" transform="translate(110.982 283)">termination</text><rect x="467.5" y="210.5" width="141" height="29" stroke="#FFC000" stroke-width="0.666667" stroke-miterlimit="8" fill="url(#fill4)"/><text font-family="DengXian,DengXian_MSFontService,sans-serif" font-weight="400" font-size="19" transform="translate(488.895 230)">handle_start</text><rect x="467.5" y="244.5" width="141" height="42" stroke="#FFC000" stroke-width="0.666667" stroke-miterlimit="8" fill="url(#fill5)"/><text font-family="DengXian,DengXian_MSFontService,sans-serif" font-weight="400" font-size="19" transform="translate(483.562 260)">handle_agent</text><text font-family="DengXian,DengXian_MSFontService,sans-serif" font-weight="400" font-size="19" transform="translate(497.482 283)">_response</text><rect x="467.5" y="291.5" width="141" height="42" stroke="#FFC000" stroke-width="0.666667" stroke-miterlimit="8" fill="url(#fill6)"/><text font-family="DengXian,DengXian_MSFontService,sans-serif" font-weight="400" font-size="19" transform="translate(476.737 307)">handle_group_</text><text font-family="DengXian,DengXian_MSFontService,sans-serif" font-weight="400" font-size="19" transform="translate(476.737 330)">chat_message</text><path d="M1.45001e-07-0.333333 234.68-0.333231 234.68 0.333435-1.45001e-07 0.333333ZM233.347-3.9999 241.347 0.000104987 233.347 4.0001Z" fill="#4472C4" transform="matrix(-1 0 0 1 467.847 312.5)"/><path d="M0.333333-7.00026e-07 0.333424 43.3252-0.333242 43.3252-0.333333 7.00026e-07ZM4.00009 41.9919 0.000104987 49.9919-3.99991 41.9919Z" fill="#4472C4" transform="matrix(1 0 0 -1 538.5 211.492)"/><text font-family="DengXian,DengXian_MSFontService,sans-serif" font-weight="400" font-size="13" transform="translate(456.821 189)">①</text><text font-family="DengXian,DengXian_MSFontService,sans-serif" font-weight="400" font-size="13" transform="translate(473.821 189)">(</text><text font-family="DengXian,DengXian_MSFontService,sans-serif" font-weight="400" font-size="13" transform="translate(477.654 189)">GroupChatStart</text><text font-family="DengXian,DengXian_MSFontService,sans-serif" font-weight="400" font-size="13" transform="translate(566.654 189)">,</text><text font-family="DengXian,DengXian_MSFontService,sans-serif" font-weight="400" font-size="13" transform="translate(573.321 189)">group)</text><rect x="800.5" y="103.5" width="428" height="257" stroke="#4472C4" stroke-linejoin="round" stroke-miterlimit="10" fill="none"/><text font-family="DengXian,DengXian_MSFontService,sans-serif" font-weight="400" font-size="19" transform="translate(909.678 87)">ChatAgentContainer</text><rect x="1023.5" y="207.5" width="109" height="48" stroke="#A5A5A5" stroke-width="0.666667" stroke-miterlimit="8" fill="url(#fill7)"/><text font-family="DengXian,DengXian_MSFontService,sans-serif" font-weight="400" font-size="19" transform="translate(1042.26 226)">message</text><text font-family="DengXian,DengXian_MSFontService,sans-serif" font-weight="400" font-size="19" transform="translate(1053.43 249)">buffer</text><rect x="821.5" y="194.5" width="141" height="28" stroke="#FFC000" stroke-width="0.666667" stroke-miterlimit="8" fill="url(#fill8)"/><text font-family="DengXian,DengXian_MSFontService,sans-serif" font-weight="400" font-size="19" transform="translate(843.056 214)">handle_start</text><rect x="821.5" y="244.5" width="141" height="43" stroke="#FFC000" stroke-width="0.666667" stroke-miterlimit="8" fill="url(#fill9)"/><text font-family="DengXian,DengXian_MSFontService,sans-serif" font-weight="400" font-size="19" transform="translate(833.89 260)">handle_agent_</text><text font-family="DengXian,DengXian_MSFontService,sans-serif" font-weight="400" font-size="19" transform="translate(855.476 283)">response</text><path d="M0-0.333333 30.5913-0.333333 30.5913 34.398 30.258 34.0647 53.8492 34.0647 53.8492 34.7313 29.9246 34.7313 29.9246 0 30.258 0.333333 0 0.333333ZM52.5159 30.398 60.5159 34.398 52.5159 38.398Z" fill="#4472C4" transform="matrix(1 0 0 -1 962.5 265.898)"/><rect x="1040.5" y="117.5" width="154" height="24" stroke="#4472C4" stroke-linejoin="round" stroke-miterlimit="10" fill="none"/><text font-family="DengXian,DengXian_MSFontService,sans-serif" font-weight="400" font-size="16" transform="translate(1050.63 134)">agent.</text><text font-family="DengXian,DengXian_MSFontService,sans-serif" font-weight="400" font-size="16" transform="translate(1097.8 134)">run_stream</text><text font-family="DengXian,DengXian_MSFontService,sans-serif" font-weight="400" font-size="16" transform="translate(1174.46 134)">(</text><text font-family="DengXian,DengXian_MSFontService,sans-serif" font-weight="400" font-size="16" transform="translate(1179.13 134)">)</text><text font-family="DengXian,DengXian_MSFontService,sans-serif" font-weight="400" font-size="13" transform="translate(657.315 197)">②</text><text font-family="DengXian,DengXian_MSFontService,sans-serif" font-weight="400" font-size="13" transform="translate(674.315 197)">GroupChatStart</text><path d="M608.5 146.167 715.405 146.167 715.405 208.349 715.072 208.016 814.977 208.016 814.977 208.682 714.739 208.682 714.739 146.5 715.072 146.833 608.5 146.833ZM813.644 204.349 821.644 208.349 813.644 212.349Z" fill="#4472C4"/><path d="M962.5 208.167 993.091 208.167 993.091 231.335 992.758 231.002 1016.35 231.002 1016.35 231.668 992.425 231.668 992.425 208.5 992.758 208.833 962.5 208.833ZM1015.02 227.335 1023.02 231.335 1015.02 235.335Z" fill="#4472C4"/><text font-family="DengXian,DengXian_MSFontService,sans-serif" font-weight="400" font-size="13" transform="translate(966.644 199)">③</text><text font-family="DengXian,DengXian_MSFontService,sans-serif" font-weight="400" font-size="13" transform="translate(371.273 217)">④</text><text font-family="DengXian,DengXian_MSFontService,sans-serif" font-weight="400" font-size="13" transform="translate(68.6279 161)">⑤</text><rect x="90.5001" y="194.5" width="132" height="28" stroke="#5B9BD5" stroke-width="0.666667" stroke-miterlimit="8" fill="url(#fill10)"/><text font-family="DengXian,DengXian_MSFontService,sans-serif" font-weight="400" font-size="19" transform="translate(102.04 214)">StopMessage</text><path d="M0-0.333333 122.906-0.333333 122.906 61.849 122.573 61.5157 238.478 61.5157 238.478 62.1824 122.239 62.1824 122.239 0 122.573 0.333333 0 0.333333ZM237.145 57.849 245.145 61.849 237.145 65.849Z" fill="#4472C4" transform="matrix(1 0 0 -1 222.5 208.349)"/><path d="M91.8586 266.093 58.3667 266.093 58.3667 208.167 83.8334 208.167 83.8334 208.833 58.7 208.833 59.0334 208.5 59.0334 265.76 58.7 265.426 91.8586 265.426ZM82.5001 204.5 90.5001 208.5 82.5001 212.5Z" fill="#4472C4"/><path d="M91.8586 266.177 58.1667 266.177 58.1667 166.167 83.8334 166.167 83.8334 166.833 58.5001 166.833 58.8334 166.5 58.8334 265.844 58.5001 265.51 91.8586 265.51ZM82.5001 162.5 90.5001 166.5 82.5001 170.5Z" fill="#4472C4"/><path d="M0-0.333333 122.906-0.333333 122.906 19.7651 122.573 19.4318 238.479 19.4318 238.479 20.0985 122.239 20.0985 122.239 0 122.573 0.333333 0 0.333333ZM237.145 15.7651 245.145 19.7651 237.145 23.7651Z" fill="#4472C4" transform="matrix(1 0 0 -1 222.5 166.265)"/><rect x="86.5001" y="111.5" width="139" height="28" stroke="#5B9BD5" stroke-width="1.33333" stroke-miterlimit="8" stroke-dasharray="5.33333 4" fill="none"/><text font-family="DengXian,DengXian_MSFontService,sans-serif" font-weight="400" font-size="19" transform="translate(98.207 131)">select_speaker</text><path d="M156.167 152.761 156.167 146.167 156.833 146.167 156.833 152.761ZM152.5 147.5 156.5 139.5 160.5 147.5Z" fill="#4472C4"/><path d="M0-0.333333 122.227-0.333333 122.227 40.9134 121.893 40.5801 237.12 40.5801 237.12 41.2467 121.56 41.2467 121.56 0 121.893 0.333333 0 0.333333ZM235.787 36.9134 243.787 40.9134 235.787 44.9134Z" fill="#4472C4" transform="matrix(-1 1.22465e-16 1.22465e-16 1 467.287 225.5)"/><text font-family="DengXian,DengXian_MSFontService,sans-serif" font-weight="400" font-size="13" transform="translate(238.818 161)">⑥</text><text font-family="DengXian,DengXian_MSFontService,sans-serif" font-weight="400" font-size="13" transform="translate(255.818 161)">(</text><text font-family="DengXian,DengXian_MSFontService,sans-serif" font-weight="400" font-size="13" transform="translate(259.652 161)">GroupChatRequestPublish</text><text font-family="DengXian,DengXian_MSFontService,sans-serif" font-weight="400" font-size="13" transform="translate(409.485 161)">,</text><text font-family="DengXian,DengXian_MSFontService,sans-serif" font-weight="400" font-size="13" transform="translate(416.152 161)">agent</text><text font-family="DengXian,DengXian_MSFontService,sans-serif" font-weight="400" font-size="13" transform="translate(448.818 161)">)</text><path d="M0.000924051-0.333332 205.493 0.236324 205.491 0.902988-0.000924051 0.333332ZM204.169-3.43403 212.158 0.588136 204.147 4.56594Z" fill="#4472C4" transform="matrix(1 0 0 -1 608.5 147.088)"/><text font-family="DengXian,DengXian_MSFontService,sans-serif" font-weight="400" font-size="13" transform="translate(628.653 136)">⑦</text><text font-family="DengXian,DengXian_MSFontService,sans-serif" font-weight="400" font-size="13" transform="translate(645.653 136)">GroupChatRequestPublish</text><rect x="820.5" y="132.5" width="146" height="28" stroke="#FFC000" stroke-width="0.666667" stroke-miterlimit="8" fill="url(#fill11)"/><text font-family="DengXian,DengXian_MSFontService,sans-serif" font-weight="400" font-size="19" transform="translate(832.071 152)">handle_request</text><rect x="1040.5" y="150.5" width="154" height="36" stroke="#5B9BD5" stroke-linejoin="round" stroke-miterlimit="10" fill="none"/><text font-family="DengXian,DengXian_MSFontService,sans-serif" font-weight="400" font-size="16" transform="translate(1050.19 164)">agent.on_messages</text><text font-family="DengXian,DengXian_MSFontService,sans-serif" font-weight="400" font-size="16" transform="translate(1085.77 183)">_stream</text><text font-family="DengXian,DengXian_MSFontService,sans-serif" font-weight="400" font-size="16" transform="translate(1139.27 183)">()</text><rect x="823.5" y="298.5" width="141" height="29" stroke="#5B9BD5" stroke-width="0.666667" stroke-miterlimit="8" fill="url(#fill12)"/><text font-family="DengXian,DengXian_MSFontService,sans-serif" font-weight="400" font-size="19" transform="translate(864.321 318)">publish</text><path d="M0-0.333333 28.8602-0.333333 28.8602 16.9541 28.5269 16.6208 67.0539 16.6208 67.0539 17.2875 28.1935 17.2875 28.1935 0 28.5269 0.333333 0 0.333333ZM65.7205 12.9541 73.7205 16.9541 65.7205 20.9541Z" fill="#4472C4" transform="matrix(1 0 0 -1 966.5 146.454)"/><path d="M966.5 146.167 995.237 146.167 995.237 168.662 994.903 168.328 1033.53 168.328 1033.53 168.995 994.57 168.995 994.57 146.5 994.903 146.833 966.5 146.833ZM1032.2 164.662 1040.2 168.662 1032.2 172.662Z" fill="#4472C4"/><path d="M0 0.333333-23.9997 0.333333-23.6663 0-23.6663 183.545-23.9997 183.212 223.878 183.212 223.878 183.879-24.333 183.879-24.333-0.333333 0-0.333333ZM222.545 179.545 230.545 183.545 222.545 187.545Z" fill="#4472C4" transform="matrix(-1 0 0 1 1195.04 129.5)"/><path d="M0 0.333333-23.9994 0.333333-23.6661 0-23.6661 144.43-23.9994 144.096 223.854 144.096 223.854 144.763-24.3328 144.763-24.3328-0.333333 0-0.333333ZM222.52 140.43 230.52 144.43 222.52 148.43Z" fill="#4472C4" transform="matrix(-1 0 0 1 1195.02 168.5)"/><text font-family="DengXian,DengXian_MSFontService,sans-serif" font-weight="400" font-size="13" transform="translate(999.875 161)">agent</text><text font-family="DengXian,DengXian_MSFontService,sans-serif" font-weight="400" font-size="13" transform="translate(997.591 122)">grou</text><text font-family="DengXian,DengXian_MSFontService,sans-serif" font-weight="400" font-size="13" transform="translate(1024.76 122)">p</text><text font-family="DengXian,DengXian_MSFontService,sans-serif" font-weight="400" font-size="13" transform="translate(971.324 142)">⑧</text><text font-family="DengXian,DengXian_MSFontService,sans-serif" font-weight="400" font-size="13" transform="translate(1008.11 331)">GroupChatTeamResponse</text><text font-family="DengXian,DengXian_MSFontService,sans-serif" font-weight="400" font-size="13" transform="translate(1157.27 331)">或</text><text font-family="DengXian,DengXian_MSFontService,sans-serif" font-weight="400" font-size="13" transform="translate(1008.11 347)">GroupChatAgentResponse</text><text font-family="Cambria Math,Cambria Math_MSFontService,sans-serif" font-weight="400" font-size="13" transform="translate(984.552 340)">⑪</text><text font-family="DengXian,DengXian_MSFontService,sans-serif" font-weight="400" font-size="13" transform="translate(1004.22 340)">(</text><text font-family="DengXian,DengXian_MSFontService,sans-serif" font-weight="400" font-size="13" transform="translate(1173.05 340)">,</text><text font-family="DengXian,DengXian_MSFontService,sans-serif" font-weight="400" font-size="13" transform="translate(1179.72 340)">group)</text><path d="M823.159 312.921 715.496 312.921 715.496 265.5 715.829 265.833 615.167 265.833 615.167 265.167 716.163 265.167 716.163 312.587 715.829 312.254 823.159 312.254ZM616.5 269.5 608.5 265.5 616.5 261.5Z" fill="#4472C4"/><text font-family="Cambria Math,Cambria Math_MSFontService,sans-serif" font-weight="400" font-size="13" transform="translate(634.974 259)">⑫</text><text font-family="DengXian,DengXian_MSFontService,sans-serif" font-weight="400" font-size="13" transform="translate(654.64 259)">GroupChat</text><text font-family="DengXian,DengXian_MSFontService,sans-serif" font-weight="400" font-size="13" transform="translate(717.307 259)">XXX</text><text font-family="DengXian,DengXian_MSFontService,sans-serif" font-weight="400" font-size="13" transform="translate(740.307 259)">Response</text><text font-family="DengXian,DengXian_MSFontService,sans-serif" font-weight="400" font-size="13" transform="translate(975.93 302)">⑨</text><text font-family="DengXian,DengXian_MSFontService,sans-serif" font-weight="400" font-size="13" transform="translate(992.93 302)">(</text><text font-family="DengXian,DengXian_MSFontService,sans-serif" font-weight="400" font-size="13" transform="translate(996.764 302)">GroupChatMessage</text><text font-family="DengXian,DengXian_MSFontService,sans-serif" font-weight="400" font-size="13" transform="translate(1109.93 302)">,</text><text font-family="DengXian,DengXian_MSFontService,sans-serif" font-weight="400" font-size="13" transform="translate(1116.6 302)">group</text><text font-family="DengXian,DengXian_MSFontService,sans-serif" font-weight="400" font-size="13" transform="translate(1151.43 302)">)</text><text font-family="DengXian,DengXian_MSFontService,sans-serif" font-weight="400" font-size="13" transform="translate(1158.93 302)">中间过程</text><path d="M823.159 312.833 615.167 312.833 615.167 312.167 823.159 312.167ZM616.5 316.5 608.5 312.5 616.5 308.5Z" fill="#4472C4"/><path d="M0-0.333333 122.227-0.333333 122.227 0.192651 121.893-0.140682 237.12-0.140682 237.12 0.525984 121.56 0.525984 121.56 0 121.893 0.333333 0 0.333333ZM235.787-3.80735 243.787 0.192651 235.787 4.19265Z" fill="#4472C4" transform="matrix(-1 1.22465e-16 1.22465e-16 1 467.287 265.5)"/><text font-family="DengXian,DengXian_MSFontService,sans-serif" font-weight="400" font-size="13" transform="translate(636.593 330)">⑩</text><text font-family="DengXian,DengXian_MSFontService,sans-serif" font-weight="400" font-size="13" transform="translate(653.593 330)">GroupChatMessage</text><text font-family="DengXian,DengXian_MSFontService,sans-serif" font-weight="400" font-size="13" transform="translate(333.917 306)">put</text><text font-family="Cambria Math,Cambria Math_MSFontService,sans-serif" font-weight="400" font-size="13" transform="translate(369.927 257)">⑬</text><text font-family="Cambria Math,Cambria Math_MSFontService,sans-serif" font-weight="400" font-size="13" transform="translate(68.1112 199)">⑭</text><text font-family="Cambria Math,Cambria Math_MSFontService,sans-serif" font-weight="400" font-size="13" transform="translate(239.58 197)">⑮</text><text font-family="DengXian,DengXian_MSFontService,sans-serif" font-weight="400" font-size="13" transform="translate(259.247 197)">(</text><text font-family="DengXian,DengXian_MSFontService,sans-serif" font-weight="400" font-size="13" transform="translate(263.08 197)">GroupChatTermination</text><text font-family="DengXian,DengXian_MSFontService,sans-serif" font-weight="400" font-size="13" transform="translate(394.247 197)">, output)</text><path d="M823.015 312.755 715.5 312.755 715.5 265.167 814.833 265.167 814.833 265.833 715.833 265.833 716.167 265.5 716.167 312.421 715.833 312.088 823.015 312.088ZM813.5 261.5 821.5 265.5 813.5 269.5Z" fill="#4472C4"/></g></svg>