<svg width="720" height="978" xmlns="http://www.w3.org/2000/svg" xmlns:xlink="http://www.w3.org/1999/xlink" overflow="hidden"><defs><clipPath id="clip0"><rect x="0" y="0" width="720" height="978"/></clipPath><linearGradient x1="162.5" y1="13.5047" x2="162.5" y2="44.5152" gradientUnits="userSpaceOnUse" spreadMethod="reflect" id="fill1"><stop offset="0" stop-color="#B1CBE9"/><stop offset="0.5" stop-color="#A3C1E5"/><stop offset="1" stop-color="#92B9E4"/></linearGradient><linearGradient x1="388.5" y1="13.5047" x2="388.5" y2="44.5152" gradientUnits="userSpaceOnUse" spreadMethod="reflect" id="fill2"><stop offset="0" stop-color="#B1CBE9"/><stop offset="0.5" stop-color="#A3C1E5"/><stop offset="1" stop-color="#92B9E4"/></linearGradient><linearGradient x1="610.5" y1="13.5047" x2="610.5" y2="44.5152" gradientUnits="userSpaceOnUse" spreadMethod="reflect" id="fill3"><stop offset="0" stop-color="#B1CBE9"/><stop offset="0.5" stop-color="#A3C1E5"/><stop offset="1" stop-color="#92B9E4"/></linearGradient></defs><g clip-path="url(#clip0)"><rect x="0" y="0" width="720" height="978.333" fill="#FFFFFF"/><rect x="119.5" y="13.5047" width="86" height="31.0106" stroke="#5B9BD5" stroke-width="0.666667" stroke-miterlimit="8" fill="url(#fill1)"/><text font-family="Calibri,Calibri_MSFontService,sans-serif" font-weight="400" font-size="9" transform="matrix(1 0 0 1.00034 152.83 31)">Main</text><rect x="345.5" y="13.5047" width="86" height="31.0106" stroke="#5B9BD5" stroke-width="0.666667" stroke-miterlimit="8" fill="url(#fill2)"/><text font-family="Calibri,Calibri_MSFontService,sans-serif" font-weight="400" font-size="9" transform="matrix(1 0 0 1.00034 379.341 31)">Func</text><rect x="567.5" y="13.5047" width="86" height="31.0106" stroke="#5B9BD5" stroke-width="0.666667" stroke-miterlimit="8" fill="url(#fill3)"/><text font-family="Calibri,Calibri_MSFontService,sans-serif" font-weight="400" font-size="9" transform="matrix(1 0 0 1.00034 589.612 31)">Event Loop</text><path d="M0 0 9.65365 856.702" stroke="#4472C4" stroke-width="0.666667" stroke-miterlimit="8" fill="none" fill-rule="evenodd" transform="matrix(-1 0 0 1.00034 163.154 44.5152)"/><path d="M0 0 6.87559 853.62" stroke="#4472C4" stroke-width="0.666667" stroke-miterlimit="8" fill="none" fill-rule="evenodd" transform="matrix(-1 0 0 1.00034 388.376 44.5152)"/><path d="M0 0 6.4779 853.62" stroke="#4472C4" stroke-width="0.666667" stroke-miterlimit="8" fill="none" fill-rule="evenodd" transform="matrix(-1 0 0 1.00034 609.978 44.5152)"/><text font-family="Calibri,Calibri_MSFontService,sans-serif" font-weight="400" font-size="9" transform="matrix(1 0 0 1.00034 33.3886 69)">t=0</text><rect x="135.5" y="54.5186" width="63" height="20.0068" stroke="#000000" stroke-width="1.33333" stroke-miterlimit="8" fill="#FFFFFF"/><text font-family="DengXian,DengXian_MSFontService,sans-serif" font-weight="400" font-size="9" transform="matrix(1 0 0 1.00034 144.301 66)">构造</text><text font-family="Calibri,Calibri_MSFontService,sans-serif" font-weight="400" font-size="9" transform="matrix(1 0 0 1.00034 162.301 66)">Task_1</text><rect x="92.5001" y="75.5258" width="164" height="21.0072" stroke="#000000" stroke-width="1.33333" stroke-miterlimit="8" fill="#FFFFFF"/><text font-family="DengXian,DengXian_MSFontService,sans-serif" font-weight="400" font-size="9" transform="matrix(1 0 0 1.00034 101.946 88)">将</text><text font-family="Calibri,Calibri_MSFontService,sans-serif" font-weight="400" font-size="9" transform="matrix(1 0 0 1.00034 110.946 88)">Task_1.__step()</text><text font-family="DengXian,DengXian_MSFontService,sans-serif" font-weight="400" font-size="9" transform="matrix(1 0 0 1.00034 168.613 88)">放入</text><text font-family="Calibri,Calibri_MSFontService,sans-serif" font-weight="400" font-size="9" transform="matrix(1 0 0 1.00034 186.613 88)">loop._ready</text><text font-family="DengXian,DengXian_MSFontService,sans-serif" font-weight="400" font-size="9" transform="matrix(1 0 0 1.00034 230.113 88)">中</text><rect x="570.5" y="75.5258" width="86" height="21.0072" stroke="#000000" stroke-width="1.33333" stroke-miterlimit="8" fill="#FFFFFF"/><text font-family="Calibri,Calibri_MSFontService,sans-serif" font-weight="400" font-size="9" transform="matrix(1 0 0 1.00034 580.08 88)">loop._ready</text><path d="M256.5 85.1958 563.957 85.2831 563.957 85.95 256.5 85.8627ZM562.625 81.6148 570.624 85.6185 562.623 89.6176Z"/><rect x="539.5" y="158.554" width="141" height="21.0072" stroke="#000000" stroke-width="1.33333" stroke-miterlimit="8" fill="#FFFFFF"/><text font-family="Calibri,Calibri_MSFontService,sans-serif" font-weight="400" font-size="9" transform="matrix(1 0 0 1.00034 548.785 171)">_</text><text font-family="Calibri,Calibri_MSFontService,sans-serif" font-weight="400" font-size="9" transform="matrix(1 0 0 1.00034 553.285 171)">run_once</text><text font-family="Calibri,Calibri_MSFontService,sans-serif" font-weight="400" font-size="9" transform="matrix(1 0 0 1.00034 587.952 171)">()</text><text font-family="DengXian,DengXian_MSFontService,sans-serif" font-weight="400" font-size="9" transform="matrix(1 0 0 1.00034 595.285 171)">开始执行</text><rect x="492.5" y="179.561" width="207" height="20.0068" stroke="#000000" stroke-width="1.33333" stroke-miterlimit="8" fill="#FFFFFF"/><text font-family="DengXian,DengXian_MSFontService,sans-serif" font-weight="400" font-size="9" transform="matrix(1 0 0 1.00034 501.801 191)">从</text><text font-family="Calibri,Calibri_MSFontService,sans-serif" font-weight="400" font-size="9" transform="matrix(1 0 0 1.00034 510.801 191)">_ready</text><text font-family="DengXian,DengXian_MSFontService,sans-serif" font-weight="400" font-size="9" transform="matrix(1 0 0 1.00034 537.967 191)">中取出</text><text font-family="Calibri,Calibri_MSFontService,sans-serif" font-weight="400" font-size="9" transform="matrix(1 0 0 1.00034 564.967 191)">handle</text><text font-family="DengXian,DengXian_MSFontService,sans-serif" font-weight="400" font-size="9" transform="matrix(1 0 0 1.00034 589.801 191)">，开始运行</text><text font-family="Calibri,Calibri_MSFontService,sans-serif" font-weight="400" font-size="9" transform="matrix(1 0 0 1.00034 634.801 191)">handle.run</text><text font-family="Calibri,Calibri_MSFontService,sans-serif" font-weight="400" font-size="9" transform="matrix(1 0 0 1.00034 674.467 191)">()</text><text font-family="Calibri,Calibri_MSFontService,sans-serif" font-weight="400" font-size="9" transform="matrix(1 0 0 1.00034 33.3886 163)">t=1</text><rect x="75.5001" y="173.559" width="175" height="32.0109" stroke="#000000" stroke-width="1.33333" stroke-miterlimit="8" fill="#FFFFFF"/><text font-family="Calibri,Calibri_MSFontService,sans-serif" font-weight="400" font-size="9" transform="matrix(1 0 0 1.00034 84.1171 186)">Task_1.__step()</text><text font-family="Calibri,Calibri_MSFontService,sans-serif" font-weight="400" font-size="9" transform="matrix(1 0 0 1.00034 84.1171 197)">Task_1.__</text><text font-family="Calibri,Calibri_MSFontService,sans-serif" font-weight="400" font-size="9" transform="matrix(1 0 0 1.00034 122.784 197)">step_run_and_handle_result</text><text font-family="Calibri,Calibri_MSFontService,sans-serif" font-weight="400" font-size="9" transform="matrix(1 0 0 1.00034 228.284 197)">()</text><path d="M7.50005 149.551 670.688 151.32" stroke="#4472C4" stroke-linejoin="round" stroke-miterlimit="10" stroke-dasharray="4 3" fill="none" fill-rule="evenodd"/><path d="M0.000393861-0.333333 235.724-0.0548058 235.724 0.61186-0.000393861 0.333333ZM234.395-3.72305 242.39 0.286404 234.386 4.27695Z" transform="matrix(-1 0 0 1.00034 492.89 189.565)"/><rect x="344.5" y="213.573" width="79" height="21.0072" stroke="#000000" stroke-width="1.33333" stroke-miterlimit="8" fill="#FFFFFF"/><text font-family="DengXian,DengXian_MSFontService,sans-serif" font-weight="400" font-size="9" transform="matrix(1 0 0 1.00034 354.014 226)">构造</text><text font-family="Calibri,Calibri_MSFontService,sans-serif" font-weight="400" font-size="9" transform="matrix(1 0 0 1.00034 372.014 226)">Task_2</text><rect x="303.5" y="233.58" width="162" height="20.0068" stroke="#000000" stroke-width="1.33333" stroke-miterlimit="8" fill="#FFFFFF"/><text font-family="DengXian,DengXian_MSFontService,sans-serif" font-weight="400" font-size="9" transform="matrix(1 0 0 1.00034 312.158 246)">将</text><text font-family="Calibri,Calibri_MSFontService,sans-serif" font-weight="400" font-size="9" transform="matrix(1 0 0 1.00034 321.158 246)">Task_2.__step()</text><text font-family="DengXian,DengXian_MSFontService,sans-serif" font-weight="400" font-size="9" transform="matrix(1 0 0 1.00034 378.825 246)">放入</text><text font-family="Calibri,Calibri_MSFontService,sans-serif" font-weight="400" font-size="9" transform="matrix(1 0 0 1.00034 396.825 246)">loop._ready</text><text font-family="DengXian,DengXian_MSFontService,sans-serif" font-weight="400" font-size="9" transform="matrix(1 0 0 1.00034 440.325 246)">中</text><rect x="568.5" y="233.58" width="86" height="20.0068" stroke="#000000" stroke-width="1.33333" stroke-miterlimit="8" fill="#FFFFFF"/><text font-family="Calibri,Calibri_MSFontService,sans-serif" font-weight="400" font-size="9" transform="matrix(1 0 0 1.00034 577.801 246)">loop._ready</text><path d="M3.39164e-07-0.333333 96.5154-0.333235 96.5154 0.333432-3.39164e-07 0.333333ZM95.1821-3.9999 103.182 0.000104987 95.182 4.0001Z" transform="matrix(1 0 0 -1.00034 465.5 243.583)"/><rect x="75.5001" y="310.606" width="189" height="20.0068" stroke="#000000" stroke-width="1.33333" stroke-miterlimit="8" fill="#FFFFFF"/><text font-family="DengXian,DengXian_MSFontService,sans-serif" font-weight="400" font-size="9" transform="matrix(1 0 0 1.00034 84.5931 323)">将</text><text font-family="Calibri,Calibri_MSFontService,sans-serif" font-weight="400" font-size="9" transform="matrix(1 0 0 1.00034 93.5931 323)">Task_1.wakeup()</text><text font-family="DengXian,DengXian_MSFontService,sans-serif" font-weight="400" font-size="9" transform="matrix(1 0 0 1.00034 155.426 323)">添加到</text><text font-family="Calibri,Calibri_MSFontService,sans-serif" font-weight="400" font-size="9" transform="matrix(1 0 0 1.00034 182.426 323)">Task_2.callback</text><text font-family="DengXian,DengXian_MSFontService,sans-serif" font-weight="400" font-size="9" transform="matrix(1 0 0 1.00034 239.26 323)">中</text><rect x="345.5" y="309.606" width="87" height="21.0072" stroke="#000000" stroke-width="1.33333" stroke-miterlimit="8" fill="#FFFFFF"/><text font-family="Calibri,Calibri_MSFontService,sans-serif" font-weight="400" font-size="9" transform="matrix(1 0 0 1.00034 354.857 322)">Task_2.callback</text><path d="M0.00184654-0.333328 74.1454 0.0774049 74.1417 0.744061-0.00184654 0.333328ZM72.8325-3.59659 80.8102 0.447664 72.7881 4.40329Z" transform="matrix(1 0 0 -1.00034 264.5 320.057)"/><rect x="98.5001" y="330.613" width="129" height="21.0072" stroke="#000000" stroke-width="1.33333" stroke-miterlimit="8" fill="#FFFFFF"/><text font-family="Calibri,Calibri_MSFontService,sans-serif" font-weight="400" font-size="9" transform="matrix(1 0 0 1.00034 107.917 343)">Task_1._fut_waiter = Task_2</text><path d="M35.5001 361.623 698.688 363.392" stroke="#4472C4" stroke-linejoin="round" stroke-miterlimit="10" stroke-dasharray="4 3" fill="none" fill-rule="evenodd"/><rect x="539.5" y="373.627" width="141" height="21.0072" stroke="#000000" stroke-width="1.33333" stroke-miterlimit="8" fill="#FFFFFF"/><text font-family="Calibri,Calibri_MSFontService,sans-serif" font-weight="400" font-size="9" transform="matrix(1 0 0 1.00034 548.131 386)">_</text><text font-family="Calibri,Calibri_MSFontService,sans-serif" font-weight="400" font-size="9" transform="matrix(1 0 0 1.00034 552.631 386)">run_once</text><text font-family="Calibri,Calibri_MSFontService,sans-serif" font-weight="400" font-size="9" transform="matrix(1 0 0 1.00034 587.298 386)">()</text><text font-family="DengXian,DengXian_MSFontService,sans-serif" font-weight="400" font-size="9" transform="matrix(1 0 0 1.00034 594.631 386)">开始执行</text><rect x="492.5" y="394.635" width="206" height="20.0068" stroke="#000000" stroke-width="1.33333" stroke-miterlimit="8" fill="#FFFFFF"/><text font-family="DengXian,DengXian_MSFontService,sans-serif" font-weight="400" font-size="9" transform="matrix(1 0 0 1.00034 501.147 407)">从</text><text font-family="Calibri,Calibri_MSFontService,sans-serif" font-weight="400" font-size="9" transform="matrix(1 0 0 1.00034 510.147 407)">_ready</text><text font-family="DengXian,DengXian_MSFontService,sans-serif" font-weight="400" font-size="9" transform="matrix(1 0 0 1.00034 537.314 407)">中取出</text><text font-family="Calibri,Calibri_MSFontService,sans-serif" font-weight="400" font-size="9" transform="matrix(1 0 0 1.00034 564.314 407)">handle</text><text font-family="DengXian,DengXian_MSFontService,sans-serif" font-weight="400" font-size="9" transform="matrix(1 0 0 1.00034 589.147 407)">，开始运行</text><text font-family="Calibri,Calibri_MSFontService,sans-serif" font-weight="400" font-size="9" transform="matrix(1 0 0 1.00034 634.147 407)">handle.run</text><text font-family="Calibri,Calibri_MSFontService,sans-serif" font-weight="400" font-size="9" transform="matrix(1 0 0 1.00034 673.814 407)">()</text><rect x="301.5" y="389.633" width="175" height="31.0106" stroke="#000000" stroke-width="1.33333" stroke-miterlimit="8" fill="#FFFFFF"/><text font-family="Calibri,Calibri_MSFontService,sans-serif" font-weight="400" font-size="9" transform="matrix(1 0 0 1.00034 310.655 402)">Task_2.__step()</text><text font-family="Calibri,Calibri_MSFontService,sans-serif" font-weight="400" font-size="9" transform="matrix(1 0 0 1.00034 310.655 413)">Task_2.__</text><text font-family="Calibri,Calibri_MSFontService,sans-serif" font-weight="400" font-size="9" transform="matrix(1 0 0 1.00034 349.321 413)">step_run_and_handle_result</text><text font-family="Calibri,Calibri_MSFontService,sans-serif" font-weight="400" font-size="9" transform="matrix(1 0 0 1.00034 454.821 413)">()</text><path d="M0.00627998-0.333274 8.54006-0.17247 8.5275 0.494079-0.00627998 0.333274ZM7.27604-3.86361 15.1993 0.286404 7.12532 4.13497Z" transform="matrix(-1 0 0 1.00034 491.699 404.638)"/><rect x="312.5" y="426.645" width="154" height="31.0106" stroke="#000000" stroke-width="1.33333" stroke-miterlimit="8" fill="#FFFFFF"/><text font-family="DengXian,DengXian_MSFontService,sans-serif" font-weight="400" font-size="9" transform="matrix(1 0 0 1.00034 321.103 439)">执行</text><text font-family="Calibri,Calibri_MSFontService,sans-serif" font-weight="400" font-size="9" transform="matrix(1 0 0 1.00034 339.103 439)">coro.send</text><text font-family="Calibri,Calibri_MSFontService,sans-serif" font-weight="400" font-size="9" transform="matrix(1 0 0 1.00034 375.103 439)">(),</text><text font-family="DengXian,DengXian_MSFontService,sans-serif" font-weight="400" font-size="9" transform="matrix(1 0 0 1.00034 384.603 439)">触发</text><text font-family="Calibri,Calibri_MSFontService,sans-serif" font-weight="400" font-size="9" transform="matrix(1 0 0 1.00034 402.603 439)">StopIteration</text><text font-family="DengXian,DengXian_MSFontService,sans-serif" font-weight="400" font-size="9" transform="matrix(1 0 0 1.00034 450.769 439)">，</text><text font-family="DengXian,DengXian_MSFontService,sans-serif" font-weight="400" font-size="9" transform="matrix(1 0 0 1.00034 321.103 450)">说明</text><text font-family="Calibri,Calibri_MSFontService,sans-serif" font-weight="400" font-size="9" transform="matrix(1 0 0 1.00034 339.103 450)">coro</text><text font-family="DengXian,DengXian_MSFontService,sans-serif" font-weight="400" font-size="9" transform="matrix(1 0 0 1.00034 355.436 450)">运行正常结束退出</text><rect x="317.5" y="462.658" width="128" height="20.0068" stroke="#000000" stroke-width="1.33333" stroke-miterlimit="8" fill="#FFFFFF"/><text font-family="DengXian,DengXian_MSFontService,sans-serif" font-weight="400" font-size="9" transform="matrix(1 0 0 1.00034 326.917 475)">调用</text><text font-family="Calibri,Calibri_MSFontService,sans-serif" font-weight="400" font-size="9" transform="matrix(1 0 0 1.00034 344.917 475)">Future_2.set_result(1)</text><rect x="299.5" y="487.666" width="171" height="31.0106" stroke="#000000" stroke-width="1.33333" stroke-miterlimit="8" fill="#FFFFFF"/><text font-family="Calibri,Calibri_MSFontService,sans-serif" font-weight="400" font-size="9" transform="matrix(1 0 0 1.00034 308.578 500)">Future_2</text><text font-family="Calibri,Calibri_MSFontService,sans-serif" font-weight="400" font-size="9" transform="matrix(1 0 0 1.00034 341.745 500)">..__</text><text font-family="Calibri,Calibri_MSFontService,sans-serif" font-weight="400" font-size="9" transform="matrix(1 0 0 1.00034 355.412 500)">schedule_callbacks()</text><text font-family="DengXian,DengXian_MSFontService,sans-serif" font-weight="400" font-size="9" transform="matrix(1 0 0 1.00034 430.245 500)">将全部</text><text font-family="Calibri,Calibri_MSFontService,sans-serif" font-weight="400" font-size="9" transform="matrix(1 0 0 1.00034 308.578 511)">callback</text><text font-family="DengXian,DengXian_MSFontService,sans-serif" font-weight="400" font-size="9" transform="matrix(1 0 0 1.00034 337.745 511)">函数添加到</text><text font-family="Calibri,Calibri_MSFontService,sans-serif" font-weight="400" font-size="9" transform="matrix(1 0 0 1.00034 382.745 511)">loop._ready</text><text font-family="DengXian,DengXian_MSFontService,sans-serif" font-weight="400" font-size="9" transform="matrix(1 0 0 1.00034 426.245 511)">中</text><rect x="580.5" y="493.668" width="85" height="21.0072" stroke="#000000" stroke-width="1.33333" stroke-miterlimit="8" fill="#FFFFFF"/><text font-family="Calibri,Calibri_MSFontService,sans-serif" font-weight="400" font-size="9" transform="matrix(1 0 0 1.00034 589.142 506)">loop._ready</text><path d="M470.503 503.338 573.207 504.141 573.202 504.808 470.497 504.005ZM571.902 500.463 579.871 504.527 571.84 508.466Z"/><text font-family="Calibri,Calibri_MSFontService,sans-serif" font-weight="400" font-size="11" transform="matrix(1 0 0 1.00034 486.637 497)">Task_1.wakeup()</text><text font-family="Calibri,Calibri_MSFontService,sans-serif" font-weight="400" font-size="9" transform="matrix(1 0 0 1.00034 37.4394 380)">t=2</text><path d="M24.5001 524.679 687.688 526.448" stroke="#4472C4" stroke-linejoin="round" stroke-miterlimit="10" stroke-dasharray="4 3" fill="none" fill-rule="evenodd"/><rect x="548.5" y="536.683" width="141" height="21.0071" stroke="#000000" stroke-width="1.33333" stroke-miterlimit="8" fill="#FFFFFF"/><text font-family="Calibri,Calibri_MSFontService,sans-serif" font-weight="400" font-size="9" transform="matrix(1 0 0 1.00034 557.32 550)">_</text><text font-family="Calibri,Calibri_MSFontService,sans-serif" font-weight="400" font-size="9" transform="matrix(1 0 0 1.00034 561.82 550)">run_once</text><text font-family="Calibri,Calibri_MSFontService,sans-serif" font-weight="400" font-size="9" transform="matrix(1 0 0 1.00034 596.487 550)">()</text><text font-family="DengXian,DengXian_MSFontService,sans-serif" font-weight="400" font-size="9" transform="matrix(1 0 0 1.00034 603.82 550)">开始执行</text><rect x="494.5" y="557.69" width="207" height="21.0071" stroke="#000000" stroke-width="1.33333" stroke-miterlimit="8" fill="#FFFFFF"/><text font-family="DengXian,DengXian_MSFontService,sans-serif" font-weight="400" font-size="9" transform="matrix(1 0 0 1.00034 504.096 570)">从</text><text font-family="Calibri,Calibri_MSFontService,sans-serif" font-weight="400" font-size="9" transform="matrix(1 0 0 1.00034 513.096 570)">_ready</text><text font-family="DengXian,DengXian_MSFontService,sans-serif" font-weight="400" font-size="9" transform="matrix(1 0 0 1.00034 540.263 570)">中取出</text><text font-family="Calibri,Calibri_MSFontService,sans-serif" font-weight="400" font-size="9" transform="matrix(1 0 0 1.00034 567.263 570)">handle</text><text font-family="DengXian,DengXian_MSFontService,sans-serif" font-weight="400" font-size="9" transform="matrix(1 0 0 1.00034 592.096 570)">，开始运行</text><text font-family="Calibri,Calibri_MSFontService,sans-serif" font-weight="400" font-size="9" transform="matrix(1 0 0 1.00034 637.096 570)">handle.run</text><text font-family="Calibri,Calibri_MSFontService,sans-serif" font-weight="400" font-size="9" transform="matrix(1 0 0 1.00034 676.763 570)">()</text><path d="M494.91 568.358 282.166 568.037 282.167 567.37 494.911 567.691ZM283.494 571.707 275.5 567.694 283.506 563.704Z"/><rect x="55.5001" y="546.686" width="220" height="42.0143" stroke="#000000" stroke-width="1.33333" stroke-miterlimit="8" fill="#FFFFFF"/><text font-family="Calibri,Calibri_MSFontService,sans-serif" font-weight="400" font-size="9" transform="matrix(1 0 0 1.00034 64.7134 559)">Task_1.wakeup()</text><text font-family="Calibri,Calibri_MSFontService,sans-serif" font-weight="400" font-size="9" transform="matrix(1 0 0 1.00034 64.7134 570)">Task_1._</text><text font-family="Calibri,Calibri_MSFontService,sans-serif" font-weight="400" font-size="9" transform="matrix(1 0 0 1.00034 96.8801 570)">step()</text><text font-family="Calibri,Calibri_MSFontService,sans-serif" font-weight="400" font-size="9" transform="matrix(1 0 0 1.00034 64.7134 581)">Task_1 .__</text><text font-family="Calibri,Calibri_MSFontService,sans-serif" font-weight="400" font-size="9" transform="matrix(1 0 0 1.00034 105.38 581)">step_run_and_handle_</text><text font-family="Calibri,Calibri_MSFontService,sans-serif" font-weight="400" font-size="9" transform="matrix(1 0 0 1.00034 190.047 581)">result</text><text font-family="Calibri,Calibri_MSFontService,sans-serif" font-weight="400" font-size="9" transform="matrix(1 0 0 1.00034 210.88 581)">()</text><text font-family="Calibri,Calibri_MSFontService,sans-serif" font-weight="400" font-size="9" transform="matrix(1 0 0 1.00034 27.9314 544)">t=3</text><rect x="494.5" y="100.534" width="195" height="32.0109" stroke="#000000" stroke-width="1.33333" stroke-miterlimit="8" fill="#FFFFFF"/><text font-family="Calibri,Calibri_MSFontService,sans-serif" font-weight="400" font-size="9" transform="matrix(1 0 0 1.00034 503.504 113)">loop.</text><text font-family="Calibri,Calibri_MSFontService,sans-serif" font-weight="400" font-size="9" transform="matrix(1 0 0 1.00034 523.838 113)">run_until_complete</text><text font-family="DengXian,DengXian_MSFontService,sans-serif" font-weight="400" font-size="9" transform="matrix(1 0 0 1.00034 596.004 113)">为最外层</text><text font-family="Calibri,Calibri_MSFontService,sans-serif" font-weight="400" font-size="9" transform="matrix(1 0 0 1.00034 632.004 113)">Task</text><text font-family="DengXian,DengXian_MSFontService,sans-serif" font-weight="400" font-size="9" transform="matrix(1 0 0 1.00034 648.338 113)">添加</text><text font-family="Calibri,Calibri_MSFontService,sans-serif" font-weight="400" font-size="9" transform="matrix(1 0 0 1.00034 503.504 124)">_</text><text font-family="Calibri,Calibri_MSFontService,sans-serif" font-weight="400" font-size="9" transform="matrix(1 0 0 1.00034 508.004 124)">run_until_complete_cb</text><text font-family="Calibri,Calibri_MSFontService,sans-serif" font-weight="400" font-size="9" transform="matrix(1 0 0 1.00034 593.171 124)">()</text><text font-family="DengXian,DengXian_MSFontService,sans-serif" font-weight="400" font-size="9" transform="matrix(1 0 0 1.00034 598.504 124)">到</text><text font-family="Calibri,Calibri_MSFontService,sans-serif" font-weight="400" font-size="9" transform="matrix(1 0 0 1.00034 607.504 124)">callback</text><text font-family="DengXian,DengXian_MSFontService,sans-serif" font-weight="400" font-size="9" transform="matrix(1 0 0 1.00034 636.671 124)">中</text><rect x="55.5001" y="593.702" width="220" height="21.0071" stroke="#000000" stroke-width="1.33333" stroke-miterlimit="8" fill="#FFFFFF"/><text font-family="DengXian,DengXian_MSFontService,sans-serif" font-weight="400" font-size="9" transform="matrix(1 0 0 1.00034 125.599 607)">执行</text><text font-family="Calibri,Calibri_MSFontService,sans-serif" font-weight="400" font-size="9" transform="matrix(1 0 0 1.00034 143.599 607)">res =</text><text font-family="Calibri,Calibri_MSFontService,sans-serif" font-weight="400" font-size="9" transform="matrix(1 0 0 1.00034 163.266 607)">coro</text><text font-family="Calibri,Calibri_MSFontService,sans-serif" font-weight="400" font-size="9" transform="matrix(1 0 0 1.00034 179.599 607)">.send()</text><rect x="55.5001" y="616.71" width="220" height="21.0071" stroke="#000000" stroke-width="1.33333" stroke-miterlimit="8" fill="#FFFFFF"/><text font-family="Calibri,Calibri_MSFontService,sans-serif" font-weight="400" font-size="9" transform="matrix(1 0 0 1.00034 75.0993 629)">coro</text><text font-family="DengXian,DengXian_MSFontService,sans-serif" font-weight="400" font-size="9" transform="matrix(1 0 0 1.00034 91.4327 629)">中</text><text font-family="Calibri,Calibri_MSFontService,sans-serif" font-weight="400" font-size="9" transform="matrix(1 0 0 1.00034 100.433 629)">r</text><text font-family="Calibri,Calibri_MSFontService,sans-serif" font-weight="400" font-size="9" transform="matrix(1 0 0 1.00034 105.599 629)">= await</text><text font-family="Calibri,Calibri_MSFontService,sans-serif" font-weight="400" font-size="9" transform="matrix(1 0 0 1.00034 134.266 629)">func</text><text font-family="Calibri,Calibri_MSFontService,sans-serif" font-weight="400" font-size="9" transform="matrix(1 0 0 1.00034 150.099 629)">()</text><text font-family="DengXian,DengXian_MSFontService,sans-serif" font-weight="400" font-size="9" transform="matrix(1 0 0 1.00034 155.433 629)">，</text><text font-family="Calibri,Calibri_MSFontService,sans-serif" font-weight="400" font-size="9" transform="matrix(1 0 0 1.00034 166.433 629)">await</text><text font-family="DengXian,DengXian_MSFontService,sans-serif" font-weight="400" font-size="9" transform="matrix(1 0 0 1.00034 186.599 629)">获取</text><text font-family="Calibri,Calibri_MSFontService,sans-serif" font-weight="400" font-size="9" transform="matrix(1 0 0 1.00034 206.599 629)">Task_2.resul</text><text font-family="Calibri,Calibri_MSFontService,sans-serif" font-weight="400" font-size="9" transform="matrix(1 0 0 1.00034 252.099 629)">t</text><rect x="105.5" y="685.734" width="139" height="21.0071" stroke="#000000" stroke-width="1.33333" stroke-miterlimit="8" fill="#FFFFFF"/><text font-family="DengXian,DengXian_MSFontService,sans-serif" font-weight="400" font-size="9" transform="matrix(1 0 0 1.00034 114.552 699)">调用</text><text font-family="Calibri,Calibri_MSFontService,sans-serif" font-weight="400" font-size="9" transform="matrix(1 0 0 1.00034 132.552 699)">Future_1.set_</text><text font-family="Calibri,Calibri_MSFontService,sans-serif" font-weight="400" font-size="9" transform="matrix(1 0 0 1.00034 183.552 699)">result(None)</text><rect x="87.5001" y="711.743" width="171" height="31.0106" stroke="#000000" stroke-width="1.33333" stroke-miterlimit="8" fill="#FFFFFF"/><text font-family="Calibri,Calibri_MSFontService,sans-serif" font-weight="400" font-size="9" transform="matrix(1 0 0 1.00034 96.2139 724)">Future_1. .__</text><text font-family="Calibri,Calibri_MSFontService,sans-serif" font-weight="400" font-size="9" transform="matrix(1 0 0 1.00034 145.047 724)">schedule_callbacks</text><text font-family="Calibri,Calibri_MSFontService,sans-serif" font-weight="400" font-size="9" transform="matrix(1 0 0 1.00034 214.547 724)">()</text><text font-family="DengXian,DengXian_MSFontService,sans-serif" font-weight="400" font-size="9" transform="matrix(1 0 0 1.00034 219.881 724)">将全部</text><text font-family="Calibri,Calibri_MSFontService,sans-serif" font-weight="400" font-size="9" transform="matrix(1 0 0 1.00034 96.2139 735)">callback</text><text font-family="DengXian,DengXian_MSFontService,sans-serif" font-weight="400" font-size="9" transform="matrix(1 0 0 1.00034 125.381 735)">函数添加到</text><text font-family="Calibri,Calibri_MSFontService,sans-serif" font-weight="400" font-size="9" transform="matrix(1 0 0 1.00034 170.381 735)">loop._ready</text><text font-family="DengXian,DengXian_MSFontService,sans-serif" font-weight="400" font-size="9" transform="matrix(1 0 0 1.00034 213.881 735)">中</text><rect x="570.5" y="717.745" width="86" height="20.0068" stroke="#000000" stroke-width="1.33333" stroke-miterlimit="8" fill="#FFFFFF"/><text font-family="Calibri,Calibri_MSFontService,sans-serif" font-weight="400" font-size="9" transform="matrix(1 0 0 1.00034 580.08 730)">loop._ready</text><text font-family="Calibri,Calibri_MSFontService,sans-serif" font-weight="400" font-size="11" transform="matrix(1 0 0 1.00034 414.568 717)">loop._</text><text font-family="Calibri,Calibri_MSFontService,sans-serif" font-weight="400" font-size="11" transform="matrix(1 0 0 1.00034 442.068 717)">run_until_complete_cb</text><text font-family="Calibri,Calibri_MSFontService,sans-serif" font-weight="400" font-size="11" transform="matrix(1 0 0 1.00034 544.068 717)">()</text><path d="M258.501 726.414 564.508 727.257 564.506 727.924 258.499 727.081ZM563.185 723.585 571.174 727.609 563.163 731.588Z"/><path d="M27.5001 746.755 690.688 748.524" stroke="#4472C4" stroke-linejoin="round" stroke-miterlimit="10" stroke-dasharray="4 3" fill="none" fill-rule="evenodd"/><text font-family="Calibri,Calibri_MSFontService,sans-serif" font-weight="400" font-size="9" transform="matrix(1 0 0 1.00034 30.52 768)">t=4</text><rect x="539.5" y="756.758" width="141" height="20.0068" stroke="#000000" stroke-width="1.33333" stroke-miterlimit="8" fill="#FFFFFF"/><text font-family="Calibri,Calibri_MSFontService,sans-serif" font-weight="400" font-size="9" transform="matrix(1 0 0 1.00034 548.131 769)">_</text><text font-family="Calibri,Calibri_MSFontService,sans-serif" font-weight="400" font-size="9" transform="matrix(1 0 0 1.00034 552.631 769)">run_once</text><text font-family="Calibri,Calibri_MSFontService,sans-serif" font-weight="400" font-size="9" transform="matrix(1 0 0 1.00034 587.298 769)">()</text><text font-family="DengXian,DengXian_MSFontService,sans-serif" font-weight="400" font-size="9" transform="matrix(1 0 0 1.00034 594.631 769)">开始执行</text><rect x="492.5" y="776.765" width="206" height="21.0071" stroke="#000000" stroke-width="1.33333" stroke-miterlimit="8" fill="#FFFFFF"/><text font-family="DengXian,DengXian_MSFontService,sans-serif" font-weight="400" font-size="9" transform="matrix(1 0 0 1.00034 501.147 790)">从</text><text font-family="Calibri,Calibri_MSFontService,sans-serif" font-weight="400" font-size="9" transform="matrix(1 0 0 1.00034 510.147 790)">_ready</text><text font-family="DengXian,DengXian_MSFontService,sans-serif" font-weight="400" font-size="9" transform="matrix(1 0 0 1.00034 537.314 790)">中取出</text><text font-family="Calibri,Calibri_MSFontService,sans-serif" font-weight="400" font-size="9" transform="matrix(1 0 0 1.00034 564.314 790)">handle</text><text font-family="DengXian,DengXian_MSFontService,sans-serif" font-weight="400" font-size="9" transform="matrix(1 0 0 1.00034 589.147 790)">，开始运行</text><text font-family="Calibri,Calibri_MSFontService,sans-serif" font-weight="400" font-size="9" transform="matrix(1 0 0 1.00034 634.147 790)">handle.run</text><text font-family="Calibri,Calibri_MSFontService,sans-serif" font-weight="400" font-size="9" transform="matrix(1 0 0 1.00034 673.814 790)">()</text><rect x="517.5" y="802.774" width="167" height="31.0106" stroke="#000000" stroke-width="1.33333" stroke-miterlimit="8" fill="#FFFFFF"/><text font-family="Calibri,Calibri_MSFontService,sans-serif" font-weight="400" font-size="9" transform="matrix(1 0 0 1.00034 526.21 815)">loop._</text><text font-family="Calibri,Calibri_MSFontService,sans-serif" font-weight="400" font-size="9" transform="matrix(1 0 0 1.00034 549.044 815)">run_until_complete_cb</text><text font-family="Calibri,Calibri_MSFontService,sans-serif" font-weight="400" font-size="9" transform="matrix(1 0 0 1.00034 634.21 815)">()</text><text font-family="DengXian,DengXian_MSFontService,sans-serif" font-weight="400" font-size="9" transform="matrix(1 0 0 1.00034 639.544 815)">运行</text><text font-family="Calibri,Calibri_MSFontService,sans-serif" font-weight="400" font-size="9" transform="matrix(1 0 0 1.00034 526.21 826)">loop.stop</text><text font-family="Calibri,Calibri_MSFontService,sans-serif" font-weight="400" font-size="9" transform="matrix(1 0 0 1.00034 560.377 826)">()</text><text font-family="DengXian,DengXian_MSFontService,sans-serif" font-weight="400" font-size="9" transform="matrix(1 0 0 1.00034 567.71 826)">设置</text><text font-family="Calibri,Calibri_MSFontService,sans-serif" font-weight="400" font-size="9" transform="matrix(1 0 0 1.00034 585.71 826)">loop._stopping</text><text font-family="Calibri,Calibri_MSFontService,sans-serif" font-weight="400" font-size="9" transform="matrix(1 0 0 1.00034 641.877 826)">= True</text><path d="M27.5001 839.786 690.688 841.555" stroke="#4472C4" stroke-linejoin="round" stroke-miterlimit="10" stroke-dasharray="4 3" fill="none" fill-rule="evenodd"/><rect x="547.5" y="847.789" width="128" height="32.0109" stroke="#000000" stroke-width="1.33333" stroke-miterlimit="8" fill="#FFFFFF"/><text font-family="Calibri,Calibri_MSFontService,sans-serif" font-weight="400" font-size="9" transform="matrix(1 0 0 1.00034 556.428 861)">run_forever</text><text font-family="Calibri,Calibri_MSFontService,sans-serif" font-weight="400" font-size="9" transform="matrix(1 0 0 1.00034 600.094 861)">()</text><text font-family="DengXian,DengXian_MSFontService,sans-serif" font-weight="400" font-size="9" transform="matrix(1 0 0 1.00034 607.428 861)">退出</text><text font-family="Calibri,Calibri_MSFontService,sans-serif" font-weight="400" font-size="9" transform="matrix(1 0 0 1.00034 556.428 872)">run_until_complete</text><text font-family="Calibri,Calibri_MSFontService,sans-serif" font-weight="400" font-size="9" transform="matrix(1 0 0 1.00034 628.594 872)">()</text><text font-family="DengXian,DengXian_MSFontService,sans-serif" font-weight="400" font-size="9" transform="matrix(1 0 0 1.00034 635.928 872)">退出</text><rect x="574.5" y="920.814" width="59" height="21.0071" stroke="#000000" stroke-width="1.33333" stroke-miterlimit="8" fill="#FFFFFF"/><text font-family="DengXian,DengXian_MSFontService,sans-serif" font-weight="400" font-size="9" transform="matrix(1 0 0 1.00034 583.127 934)">程序结束</text><rect x="520.5" y="883.801" width="173" height="31.0106" stroke="#000000" stroke-width="1.33333" stroke-miterlimit="8" fill="#FFFFFF"/><text font-family="Calibri,Calibri_MSFontService,sans-serif" font-weight="400" font-size="9" transform="matrix(1 0 0 1.00034 529.926 896)">Runner.close()</text><text font-family="DengXian,DengXian_MSFontService,sans-serif" font-weight="400" font-size="9" transform="matrix(1 0 0 1.00034 584.593 896)">清理工作，会自动创建</text><text font-family="DengXian,DengXian_MSFontService,sans-serif" font-weight="400" font-size="9" transform="matrix(1 0 0 1.00034 529.926 907)">一个</text><text font-family="Calibri,Calibri_MSFontService,sans-serif" font-weight="400" font-size="9" transform="matrix(1 0 0 1.00034 547.926 907)">Task</text><text font-family="DengXian,DengXian_MSFontService,sans-serif" font-weight="400" font-size="9" transform="matrix(1 0 0 1.00034 564.259 907)">完成清理</text><rect x="305.5" y="616.71" width="184" height="21.0071" stroke="#000000" stroke-width="1.33333" stroke-miterlimit="8" fill="#FFFFFF"/><text font-family="Calibri,Calibri_MSFontService,sans-serif" font-weight="400" font-size="9" transform="matrix(1 0 0 1.00034 315.33 630)">Future_2.__</text><text font-family="Calibri,Calibri_MSFontService,sans-serif" font-weight="400" font-size="9" transform="matrix(1 0 0 1.00034 359.83 630)">await</text><text font-family="Calibri,Calibri_MSFontService,sans-serif" font-weight="400" font-size="9" transform="matrix(1 0 0 1.00034 379.997 630)">__()</text><text font-family="DengXian,DengXian_MSFontService,sans-serif" font-weight="400" font-size="9" transform="matrix(1 0 0 1.00034 394.33 630)">最后</text><text font-family="Calibri,Calibri_MSFontService,sans-serif" font-weight="400" font-size="9" transform="matrix(1 0 0 1.00034 412.33 630)">return</text><text font-family="Calibri,Calibri_MSFontService,sans-serif" font-weight="400" font-size="9" transform="matrix(1 0 0 1.00034 437.497 630)">self.result</text><text font-family="Calibri,Calibri_MSFontService,sans-serif" font-weight="400" font-size="9" transform="matrix(1 0 0 1.00034 473.33 630)">(</text><text font-family="Calibri,Calibri_MSFontService,sans-serif" font-weight="400" font-size="9" transform="matrix(1 0 0 1.00034 475.997 630)">)</text><rect x="54.5001" y="639.718" width="221" height="31.0106" stroke="#000000" stroke-width="1.33333" stroke-miterlimit="8" fill="#FFFFFF"/><text font-family="DengXian,DengXian_MSFontService,sans-serif" font-weight="400" font-size="9" transform="matrix(1 0 0 1.00034 59.9866 652)">如果</text><text font-family="Calibri,Calibri_MSFontService,sans-serif" font-weight="400" font-size="9" transform="matrix(1 0 0 1.00034 77.9866 652)">coro</text><text font-family="DengXian,DengXian_MSFontService,sans-serif" font-weight="400" font-size="9" transform="matrix(1 0 0 1.00034 94.3199 652)">中</text><text font-family="DengXian,DengXian_MSFontService,sans-serif" font-weight="400" font-size="9" transform="matrix(1 0 0 1.00034 103.32 652)">还有</text><text font-family="Calibri,Calibri_MSFontService,sans-serif" font-weight="400" font-size="9" transform="matrix(1 0 0 1.00034 121.32 652)">await</text><text font-family="DengXian,DengXian_MSFontService,sans-serif" font-weight="400" font-size="9" transform="matrix(1 0 0 1.00034 141.487 652)">，将</text><text font-family="DengXian,DengXian_MSFontService,sans-serif" font-weight="400" font-size="9" transform="matrix(1 0 0 1.00034 159.487 652)">对应</text><text font-family="Calibri,Calibri_MSFontService,sans-serif" font-weight="400" font-size="9" transform="matrix(1 0 0 1.00034 177.487 652)">Task/Future</text><text font-family="DengXian,DengXian_MSFontService,sans-serif" font-weight="400" font-size="9" transform="matrix(1 0 0 1.00034 221.487 652)">返回</text><text font-family="DengXian,DengXian_MSFontService,sans-serif" font-weight="400" font-size="9" transform="matrix(1 0 0 1.00034 239.487 652)">给</text><text font-family="Calibri,Calibri_MSFontService,sans-serif" font-weight="400" font-size="9" transform="matrix(1 0 0 1.00034 248.487 652)">res</text><text font-family="DengXian,DengXian_MSFontService,sans-serif" font-weight="400" font-size="9" transform="matrix(1 0 0 1.00034 259.653 652)">；</text><text font-family="DengXian,DengXian_MSFontService,sans-serif" font-weight="400" font-size="9" transform="matrix(1 0 0 1.00034 73.3199 663)">否则</text><text font-family="DengXian,DengXian_MSFontService,sans-serif" font-weight="400" font-size="9" transform="matrix(1 0 0 1.00034 91.3199 663)">，</text><text font-family="Calibri,Calibri_MSFontService,sans-serif" font-weight="400" font-size="9" transform="matrix(1 0 0 1.00034 102.32 663)">coro</text><text font-family="DengXian,DengXian_MSFontService,sans-serif" font-weight="400" font-size="9" transform="matrix(1 0 0 1.00034 118.653 663)">执行完成，退出</text><text font-family="DengXian,DengXian_MSFontService,sans-serif" font-weight="400" font-size="9" transform="matrix(1 0 0 1.00034 181.653 663)">引发</text><text font-family="Calibri,Calibri_MSFontService,sans-serif" font-weight="400" font-size="9" transform="matrix(1 0 0 1.00034 199.653 663)">StopIteration</text><path d="M305.265 632.254 282.164 632.095 282.169 631.428 305.269 631.587ZM283.472 635.772 275.5 631.715 283.527 627.769Z"/><path d="M276.5 623.379 298.736 623.379 298.736 624.046 276.5 624.046ZM297.403 619.711 305.403 623.713 297.403 627.714Z"/><rect x="57.5001" y="261.589" width="220" height="20.0068" stroke="#000000" stroke-width="1.33333" stroke-miterlimit="8" fill="#FFFFFF"/><text font-family="DengXian,DengXian_MSFontService,sans-serif" font-weight="400" font-size="9" transform="matrix(1 0 0 1.00034 127.339 274)">执行</text><text font-family="Calibri,Calibri_MSFontService,sans-serif" font-weight="400" font-size="9" transform="matrix(1 0 0 1.00034 145.339 274)">res =</text><text font-family="Calibri,Calibri_MSFontService,sans-serif" font-weight="400" font-size="9" transform="matrix(1 0 0 1.00034 165.005 274)">coro</text><text font-family="Calibri,Calibri_MSFontService,sans-serif" font-weight="400" font-size="9" transform="matrix(1 0 0 1.00034 181.339 274)">.send()</text><rect x="57.5001" y="284.597" width="220" height="20.0068" stroke="#000000" stroke-width="1.33333" stroke-miterlimit="8" fill="#FFFFFF"/><text font-family="DengXian,DengXian_MSFontService,sans-serif" font-weight="400" font-size="9" transform="matrix(1 0 0 1.00034 79.422 297)">在</text><text font-family="Calibri,Calibri_MSFontService,sans-serif" font-weight="400" font-size="9" transform="matrix(1 0 0 1.00034 88.422 297)">coro</text><text font-family="DengXian,DengXian_MSFontService,sans-serif" font-weight="400" font-size="9" transform="matrix(1 0 0 1.00034 104.755 297)">中</text><text font-family="DengXian,DengXian_MSFontService,sans-serif" font-weight="400" font-size="9" transform="matrix(1 0 0 1.00034 113.755 297)">的</text><text font-family="Calibri,Calibri_MSFontService,sans-serif" font-weight="400" font-size="9" transform="matrix(1 0 0 1.00034 122.755 297)">r</text><text font-family="Calibri,Calibri_MSFontService,sans-serif" font-weight="400" font-size="9" transform="matrix(1 0 0 1.00034 127.922 297)">= await</text><text font-family="Calibri,Calibri_MSFontService,sans-serif" font-weight="400" font-size="9" transform="matrix(1 0 0 1.00034 156.589 297)">func</text><text font-family="Calibri,Calibri_MSFontService,sans-serif" font-weight="400" font-size="9" transform="matrix(1 0 0 1.00034 172.422 297)">()</text><text font-family="DengXian,DengXian_MSFontService,sans-serif" font-weight="400" font-size="9" transform="matrix(1 0 0 1.00034 177.755 297)">，</text><text font-family="Calibri,Calibri_MSFontService,sans-serif" font-weight="400" font-size="9" transform="matrix(1 0 0 1.00034 188.755 297)">await</text><text font-family="DengXian,DengXian_MSFontService,sans-serif" font-weight="400" font-size="9" transform="matrix(1 0 0 1.00034 208.922 297)">获取</text><text font-family="Calibri,Calibri_MSFontService,sans-serif" font-weight="400" font-size="9" transform="matrix(1 0 0 1.00034 228.922 297)">Task_2</text><rect x="307.5" y="284.597" width="184" height="20.0068" stroke="#000000" stroke-width="1.33333" stroke-miterlimit="8" fill="#FFFFFF"/><text font-family="Calibri,Calibri_MSFontService,sans-serif" font-weight="400" font-size="9" transform="matrix(1 0 0 1.00034 337.819 297)">Future_2.__</text><text font-family="Calibri,Calibri_MSFontService,sans-serif" font-weight="400" font-size="9" transform="matrix(1 0 0 1.00034 382.319 297)">await</text><text font-family="Calibri,Calibri_MSFontService,sans-serif" font-weight="400" font-size="9" transform="matrix(1 0 0 1.00034 402.486 297)">__()</text><text font-family="DengXian,DengXian_MSFontService,sans-serif" font-weight="400" font-size="9" transform="matrix(1 0 0 1.00034 416.819 297)">中</text><text font-family="Calibri,Calibri_MSFontService,sans-serif" font-weight="400" font-size="9" transform="matrix(1 0 0 1.00034 427.819 297)">yield self</text><path d="M307.265 299.14 284.164 298.981 284.169 298.314 307.269 298.474ZM285.472 302.658 277.5 298.602 285.527 294.656Z"/><path d="M277.5 290.266 299.736 290.266 299.736 290.933 277.5 290.933ZM298.403 286.598 306.403 290.599 298.403 294.601Z"/></g></svg>